<?xml version="1.0" encoding="UTF-8"?>
<svg xmlns="http://www.w3.org/2000/svg" width="239.75" height="108.5" viewBox="0 0 137.0 62.0">
  <defs>
    <clipPath id="clip0">
      <path d="M0,0h62v62h-62z" />
    </clipPath>
  </defs>
  <g>
    <g clip-path="url(#clip0)">
      <path d="M31.01,62C13.65,62 8.97,61.12 4.92,57.08C0.86,53.01 0,48.35 0,31.01C0,13.65 0.88,8.99 4.92,4.92C8.97,0.88 13.65,0 31.01,0C48.37,0 53.05,0.88 57.1,4.92C61.16,8.99 62.02,13.65 62.02,31.01C62.02,48.37 61.16,53.01 57.1,57.1C53.03,61.12 48.35,62 31.01,62Z" fill="#000000" />
      <path d="M43.17,30.97C41.98,30.97 41.2,30.19 41.2,29.03C41.2,27.91 41.98,27.13 43.17,27.13H46.25V30.97H43.17ZM48.84,24.9H42.86C40.33,24.9 38.59,26.56 38.59,28.95C38.59,30.83 39.67,32.26 41.39,32.77L38.12,37.73H41L43.94,33.22H46.25V37.73H48.84V24.9ZM16.49,28.25V24.39H21.51V35.36H15.2C15.87,34.2 16.49,31.46 16.49,28.25ZM24.17,21.9H13.91V28.35C13.91,31.64 13.34,34.22 12.56,35.36H11.34V41.22H13.87V37.75H23.47V41.22H26.01V35.36H24.17V21.9ZM31.91,35.55L31.68,35.4L34.67,24.9H28.62L27.97,27.23L31.48,27.21L29.19,35.22C28.78,36.67 29.76,38.04 31.38,38.04C31.89,38.04 32.38,37.92 32.93,37.57L37.06,34.77L35.81,32.91L31.91,35.55ZM33.67,22.49C34.95,22.49 35.48,22.02 35.48,20.88C35.48,19.69 34.93,19.22 33.67,19.22C32.42,19.22 31.85,19.69 31.85,20.88C31.85,22 32.38,22.49 33.67,22.49Z" fill="#FFFFFF" />
    </g>
    <path d="M105.04,1C113.73,1 119.15,1.22 122.89,1.93C126.56,2.62 128.56,3.76 130.42,5.63C132.3,7.51 133.44,9.5 134.13,13.16C134.84,16.9 135.05,22.32 135.05,31.01C135.05,39.7 134.84,45.11 134.13,48.85C133.44,52.51 132.3,54.5 130.43,56.39C128.55,58.24 126.55,59.39 122.88,60.08C119.14,60.78 113.72,61 105.04,61C96.35,61 90.93,60.78 87.19,60.07C83.52,59.38 81.53,58.23 79.66,56.37C77.79,54.49 76.64,52.5 75.95,48.84C75.25,45.1 75.03,39.69 75.03,31.01C75.03,22.32 75.25,16.9 75.96,13.16C76.65,9.5 77.8,7.51 79.66,5.63L79.66,5.63C81.53,3.76 83.52,2.62 87.19,1.93C90.93,1.22 96.35,1 105.04,1Z" stroke="#000000" stroke-width="2.0" />
    <path d="M103.53,52.32C101.27,50.6 99.63,48.03 99.08,45.04H91.79V13.63C95.69,15.59 98.51,19.88 98.82,24.33L99.92,33.16L99.39,33.09C98.22,33.09 97.2,34.2 97.2,35.28C97.2,36.3 97.98,37.16 99,37.38L100.33,37.69C102.51,33.54 103.76,29.48 103.76,25.49C103.76,21.9 103.29,18.3 103.21,14.63C103.21,12.99 103.84,11.5 104.84,10.34C105.86,11.5 106.48,12.99 106.48,14.63C106.48,18.3 105.92,21.9 105.92,25.49C105.92,29.48 107.17,33.54 109.36,37.69L110.68,37.38C111.71,37.16 112.48,36.28 112.48,35.28C112.48,34.18 111.46,33.09 110.3,33.09L109.75,33.18L110.85,24.35C111.4,19.9 113.97,15.59 117.88,13.65V45.06H110.6C110.05,48.03 108.5,50.7 106.15,52.34C105.6,52.73 105.13,53.2 104.82,53.83C104.54,53.2 104.07,52.73 103.53,52.32ZM95.24,34.2C95.55,33.03 96.4,32.01 97.51,31.38L96.65,24.11C96.34,21.84 95.4,19.82 93.99,18.16V34.18H95.24V34.2ZM98.92,42.86C98.92,41.76 99.08,40.75 99.31,39.73L98.28,39.49C96.79,39.02 95.63,37.85 95.24,36.36H93.99V42.86H98.92ZM103.76,42.86C103.76,41.53 102.74,40.37 101.41,40.2C101.18,41.06 101.02,41.92 101.02,42.86H103.76ZM103.76,45.06H101.33C101.72,46.78 102.57,48.35 103.76,49.68V45.06ZM107.19,38.26C106.25,36.55 105.39,34.75 104.84,32.87C104.29,34.75 103.43,36.55 102.49,38.26C103.43,38.49 104.21,39.12 104.84,39.84C105.47,39.12 106.25,38.49 107.19,38.26ZM108.68,42.86C108.68,41.92 108.52,41.06 108.29,40.2C106.97,40.37 105.94,41.53 105.94,42.86H108.68ZM108.38,45.06H105.94V49.68C107.13,48.33 107.99,46.78 108.38,45.06ZM115.71,42.86V36.36H114.46C114.07,37.85 112.89,39.02 111.42,39.49L110.4,39.73C110.62,40.75 110.79,41.76 110.79,42.86H115.71ZM115.71,34.2V18.16C114.3,19.8 113.28,21.84 113.05,24.11L112.2,31.38C113.3,32.01 114.16,33.01 114.46,34.2H115.71Z" fill="#000000" />
  </g>
</svg>
